<svg width="46" height="45" viewBox="0 0 46 45" fill="none" xmlns="http://www.w3.org/2000/svg">
<path d="M30.9961 15C33.9798 15 36.8413 16.1853 38.951 18.295C41.0608 20.4048 42.2461 23.2663 42.2461 26.25V39.375H34.7461V26.25C34.7461 25.2554 34.351 24.3016 33.6477 23.5984C32.9445 22.8951 31.9907 22.5 30.9961 22.5C30.0015 22.5 29.0477 22.8951 28.3444 23.5984C27.6412 24.3016 27.2461 25.2554 27.2461 26.25V39.375H19.7461V26.25C19.7461 23.2663 20.9314 20.4048 23.0411 18.295C25.1509 16.1853 28.0124 15 30.9961 15V15Z" stroke="#FFFFFE" stroke-width="2" stroke-linecap="round" stroke-linejoin="round"/>
<path d="M12.2461 16.875H4.74609V39.375H12.2461V16.875Z" stroke="#FFFFFE" stroke-width="2" stroke-linecap="round" stroke-linejoin="round"/>
<path d="M8.49609 11.25C10.5672 11.25 12.2461 9.57107 12.2461 7.5C12.2461 5.42893 10.5672 3.75 8.49609 3.75C6.42503 3.75 4.74609 5.42893 4.74609 7.5C4.74609 9.57107 6.42503 11.25 8.49609 11.25Z" stroke="#FFFFFE" stroke-width="2" stroke-linecap="round" stroke-linejoin="round"/>
</svg>
