<svg width="368" height="267" viewBox="0 0 368 267" fill="none" xmlns="http://www.w3.org/2000/svg">
<g clip-path="url(#clip0_26_43)">
<path d="M214.359 47.069C221.256 47.069 226.848 41.4914 226.848 34.6112C226.848 27.7309 221.256 22.1533 214.359 22.1533C207.463 22.1533 201.871 27.7309 201.871 34.6112C201.871 41.4914 207.463 47.069 214.359 47.069Z" fill="#F2F2F2"/>
<path d="M311.233 231.958C329.796 217.854 338.661 194.153 333.111 171.545C332.973 170.983 332.828 170.422 332.674 169.863C328.995 156.443 319.891 143.688 306.623 139.4C295.483 135.8 283.322 138.568 271.7 137.137C248.885 134.326 231.196 115.91 218.75 96.629C206.304 77.3476 196.739 55.765 180.201 39.8358C152.941 13.5792 108.473 7.92616 74.6746 25.0172C40.876 42.1083 19.3466 80.0263 20.2648 117.816C21.183 155.606 43.6717 191.736 76.3309 210.906C88.3286 217.948 102.205 222.936 116.015 221.191C127.998 219.676 138.885 213.253 150.812 211.346C169.562 208.348 188.194 216.805 204.412 226.661C220.63 236.516 236.295 248.198 254.725 252.767C272.62 257.203 294.79 244.452 311.233 231.958Z" fill="#F2F2F2"/>
<path d="M284.564 25.8108C284.157 25.5402 283.746 25.2836 283.339 25.0223C271.576 17.5178 258.969 11.4213 245.777 6.85862L242.719 48.9528H223.327V0.713856C222.107 0.461907 220.877 0.223955 219.647 0V48.9528H196.603C183.917 48.9528 171.751 43.9256 162.78 34.977C153.81 26.0285 148.771 13.8916 148.771 1.23647V1.23643C147.536 1.50238 146.31 1.78699 145.085 2.09026V48.9528H126.316L123.402 8.81357C109.846 14.0001 96.9755 20.8207 85.0784 29.1235C84.8726 29.2635 84.6668 29.4081 84.4657 29.5481C83.4321 30.2713 82.4125 31.0085 81.3976 31.755V192.345H136.713L135.736 178.837L130.357 104.676H238.673L233.294 178.837L232.317 192.345H287.02V27.4345C286.206 26.884 285.387 26.3427 284.564 25.8108ZM145.085 92.4281H129.468L126.583 52.6294H145.085V92.4281ZM219.647 92.4281H193.418V91.6396C193.418 91.2605 193.343 90.8852 193.197 90.5351C193.052 90.1849 192.838 89.8668 192.57 89.599C192.301 89.3312 191.981 89.1189 191.63 88.9743C191.279 88.8297 190.903 88.7555 190.523 88.7562H179.12C178.74 88.756 178.364 88.8305 178.014 88.9754C177.663 89.1202 177.344 89.3326 177.076 89.6004C176.807 89.8682 176.594 90.1861 176.449 90.536C176.304 90.8859 176.229 91.2609 176.23 91.6396V92.4281H148.771V52.6294H219.647V92.4281ZM223.328 92.4281V52.6294H242.452L239.566 92.4281H223.328Z" fill="#3F3D56"/>
<path d="M6.10352e-05 202.628C4.06314 207.431 8.45781 211.944 13.1519 216.136L354.848 216.602C359.542 212.411 363.937 207.898 368 203.095L6.10352e-05 202.628Z" fill="#3F3D56"/>
<path d="M231.715 159.377V199.364C231.716 199.874 231.919 200.363 232.28 200.723C232.641 201.083 233.131 201.286 233.642 201.286H293.043C293.553 201.286 294.043 201.083 294.404 200.723C294.766 200.363 294.969 199.874 294.969 199.364V159.377C294.968 158.868 294.764 158.38 294.403 158.02C294.042 157.661 293.553 157.458 293.043 157.458H233.642C233.131 157.458 232.642 157.661 232.281 158.02C231.92 158.38 231.717 158.868 231.715 159.377V159.377Z" fill="#3F3D56"/>
<path d="M233.109 159.875V198.871C233.109 199.143 233.218 199.404 233.411 199.597C233.604 199.789 233.866 199.898 234.139 199.898H292.548C292.821 199.898 293.083 199.789 293.276 199.597C293.469 199.404 293.577 199.143 293.578 198.871V159.875C293.578 159.602 293.469 159.341 293.276 159.148C293.083 158.955 292.821 158.846 292.548 158.846H234.139C233.865 158.846 233.603 158.955 233.41 159.148C233.217 159.341 233.109 159.602 233.109 159.875V159.875Z" fill="#8C7851"/>
<path d="M230.473 207.163C230.582 207.299 230.72 207.409 230.878 207.484C231.035 207.559 231.207 207.598 231.382 207.597H294.986C295.16 207.597 295.332 207.558 295.489 207.483C295.646 207.408 295.784 207.3 295.894 207.165C296.003 207.03 296.081 206.873 296.122 206.704C296.163 206.535 296.166 206.36 296.13 206.19L295.143 201.511C295.102 201.321 295.014 201.143 294.887 200.995C294.759 200.847 294.597 200.733 294.414 200.663C294.282 200.611 294.141 200.585 293.999 200.585H232.365C232.223 200.585 232.082 200.611 231.95 200.663C231.767 200.733 231.605 200.847 231.478 200.995C231.35 201.143 231.262 201.321 231.221 201.511L230.234 206.19C230.199 206.36 230.202 206.535 230.243 206.703C230.285 206.872 230.363 207.029 230.473 207.163V207.163Z" fill="#2F2E41"/>
<path d="M291.816 202.6H293.319C293.445 202.6 293.547 202.498 293.547 202.372V201.655C293.547 201.53 293.445 201.428 293.319 201.428H291.816C291.69 201.428 291.588 201.53 291.588 201.655V202.372C291.588 202.498 291.69 202.6 291.816 202.6Z" fill="#3F3D56"/>
<path d="M287.898 202.6H289.401C289.527 202.6 289.629 202.498 289.629 202.372V201.655C289.629 201.53 289.527 201.428 289.401 201.428H287.898C287.772 201.428 287.67 201.53 287.67 201.655V202.372C287.67 202.498 287.772 202.6 287.898 202.6Z" fill="#3F3D56"/>
<path d="M283.981 202.6H285.483C285.609 202.6 285.711 202.498 285.711 202.372V201.655C285.711 201.53 285.609 201.428 285.483 201.428H283.981C283.854 201.428 283.752 201.53 283.752 201.655V202.372C283.752 202.498 283.854 202.6 283.981 202.6Z" fill="#3F3D56"/>
<path d="M280.063 202.6H281.565C281.691 202.6 281.793 202.498 281.793 202.372V201.655C281.793 201.53 281.691 201.428 281.565 201.428H280.063C279.936 201.428 279.834 201.53 279.834 201.655V202.372C279.834 202.498 279.936 202.6 280.063 202.6Z" fill="#3F3D56"/>
<path d="M276.145 202.6H277.647C277.773 202.6 277.875 202.498 277.875 202.372V201.655C277.875 201.53 277.773 201.428 277.647 201.428H276.145C276.019 201.428 275.916 201.53 275.916 201.655V202.372C275.916 202.498 276.019 202.6 276.145 202.6Z" fill="#3F3D56"/>
<path d="M272.227 202.6H273.729C273.855 202.6 273.957 202.498 273.957 202.372V201.655C273.957 201.53 273.855 201.428 273.729 201.428H272.227C272.101 201.428 271.998 201.53 271.998 201.655V202.372C271.998 202.498 272.101 202.6 272.227 202.6Z" fill="#3F3D56"/>
<path d="M268.309 202.6H269.811C269.937 202.6 270.039 202.498 270.039 202.372V201.655C270.039 201.53 269.937 201.428 269.811 201.428H268.309C268.183 201.428 268.08 201.53 268.08 201.655V202.372C268.08 202.498 268.183 202.6 268.309 202.6Z" fill="#3F3D56"/>
<path d="M264.391 202.6H265.893C266.019 202.6 266.121 202.498 266.121 202.372V201.655C266.121 201.53 266.019 201.428 265.893 201.428H264.391C264.265 201.428 264.162 201.53 264.162 201.655V202.372C264.162 202.498 264.265 202.6 264.391 202.6Z" fill="#3F3D56"/>
<path d="M260.473 202.6H261.975C262.101 202.6 262.203 202.498 262.203 202.372V201.655C262.203 201.53 262.101 201.428 261.975 201.428H260.473C260.347 201.428 260.244 201.53 260.244 201.655V202.372C260.244 202.498 260.347 202.6 260.473 202.6Z" fill="#3F3D56"/>
<path d="M256.555 202.6H258.057C258.183 202.6 258.285 202.498 258.285 202.372V201.655C258.285 201.53 258.183 201.428 258.057 201.428H256.555C256.429 201.428 256.326 201.53 256.326 201.655V202.372C256.326 202.498 256.429 202.6 256.555 202.6Z" fill="#3F3D56"/>
<path d="M252.637 202.6H254.139C254.265 202.6 254.367 202.498 254.367 202.372V201.655C254.367 201.53 254.265 201.428 254.139 201.428H252.637C252.511 201.428 252.409 201.53 252.409 201.655V202.372C252.409 202.498 252.511 202.6 252.637 202.6Z" fill="#3F3D56"/>
<path d="M248.719 202.6H250.221C250.347 202.6 250.45 202.498 250.45 202.372V201.655C250.45 201.53 250.347 201.428 250.221 201.428H248.719C248.593 201.428 248.491 201.53 248.491 201.655V202.372C248.491 202.498 248.593 202.6 248.719 202.6Z" fill="#3F3D56"/>
<path d="M244.801 202.6H246.303C246.429 202.6 246.532 202.498 246.532 202.372V201.655C246.532 201.53 246.429 201.428 246.303 201.428H244.801C244.675 201.428 244.573 201.53 244.573 201.655V202.372C244.573 202.498 244.675 202.6 244.801 202.6Z" fill="#3F3D56"/>
<path d="M240.883 202.6H242.385C242.511 202.6 242.614 202.498 242.614 202.372V201.655C242.614 201.53 242.511 201.428 242.385 201.428H240.883C240.757 201.428 240.655 201.53 240.655 201.655V202.372C240.655 202.498 240.757 202.6 240.883 202.6Z" fill="#3F3D56"/>
<path d="M236.965 202.6H238.467C238.593 202.6 238.696 202.498 238.696 202.372V201.655C238.696 201.53 238.593 201.428 238.467 201.428H236.965C236.839 201.428 236.737 201.53 236.737 201.655V202.372C236.737 202.498 236.839 202.6 236.965 202.6Z" fill="#3F3D56"/>
<path d="M233.047 202.6H234.549C234.675 202.6 234.778 202.498 234.778 202.372V201.655C234.778 201.53 234.675 201.428 234.549 201.428H233.047C232.921 201.428 232.819 201.53 232.819 201.655V202.372C232.819 202.498 232.921 202.6 233.047 202.6Z" fill="#3F3D56"/>
<path d="M291.863 204.554H293.365C293.491 204.554 293.593 204.452 293.593 204.327V203.61C293.593 203.484 293.491 203.382 293.365 203.382H291.863C291.737 203.382 291.634 203.484 291.634 203.61V204.327C291.634 204.452 291.737 204.554 291.863 204.554Z" fill="#3F3D56"/>
<path d="M287.945 204.554H289.447C289.573 204.554 289.675 204.452 289.675 204.327V203.61C289.675 203.484 289.573 203.382 289.447 203.382H287.945C287.819 203.382 287.716 203.484 287.716 203.61V204.327C287.716 204.452 287.819 204.554 287.945 204.554Z" fill="#3F3D56"/>
<path d="M284.027 204.554H285.529C285.655 204.554 285.757 204.452 285.757 204.327V203.61C285.757 203.484 285.655 203.382 285.529 203.382H284.027C283.901 203.382 283.798 203.484 283.798 203.61V204.327C283.798 204.452 283.901 204.554 284.027 204.554Z" fill="#3F3D56"/>
<path d="M280.109 204.554H281.611C281.737 204.554 281.839 204.452 281.839 204.327V203.61C281.839 203.484 281.737 203.382 281.611 203.382H280.109C279.983 203.382 279.881 203.484 279.881 203.61V204.327C279.881 204.452 279.983 204.554 280.109 204.554Z" fill="#3F3D56"/>
<path d="M276.191 204.554H277.693C277.819 204.554 277.922 204.452 277.922 204.327V203.61C277.922 203.484 277.819 203.382 277.693 203.382H276.191C276.065 203.382 275.963 203.484 275.963 203.61V204.327C275.963 204.452 276.065 204.554 276.191 204.554Z" fill="#3F3D56"/>
<path d="M272.273 204.554H273.775C273.901 204.554 274.004 204.452 274.004 204.327V203.61C274.004 203.484 273.901 203.382 273.775 203.382H272.273C272.147 203.382 272.045 203.484 272.045 203.61V204.327C272.045 204.452 272.147 204.554 272.273 204.554Z" fill="#3F3D56"/>
<path d="M268.355 204.554H269.857C269.983 204.554 270.086 204.452 270.086 204.327V203.61C270.086 203.484 269.983 203.382 269.857 203.382H268.355C268.229 203.382 268.127 203.484 268.127 203.61V204.327C268.127 204.452 268.229 204.554 268.355 204.554Z" fill="#3F3D56"/>
<path d="M264.437 204.554H265.939C266.065 204.554 266.168 204.452 266.168 204.327V203.61C266.168 203.484 266.065 203.382 265.939 203.382H264.437C264.311 203.382 264.209 203.484 264.209 203.61V204.327C264.209 204.452 264.311 204.554 264.437 204.554Z" fill="#3F3D56"/>
<path d="M260.519 204.554H262.021C262.147 204.554 262.25 204.452 262.25 204.327V203.61C262.25 203.484 262.147 203.382 262.021 203.382H260.519C260.393 203.382 260.291 203.484 260.291 203.61V204.327C260.291 204.452 260.393 204.554 260.519 204.554Z" fill="#3F3D56"/>
<path d="M256.601 204.554H258.103C258.23 204.554 258.332 204.452 258.332 204.327V203.61C258.332 203.484 258.23 203.382 258.103 203.382H256.601C256.475 203.382 256.373 203.484 256.373 203.61V204.327C256.373 204.452 256.475 204.554 256.601 204.554Z" fill="#3F3D56"/>
<path d="M252.683 204.554H254.185C254.312 204.554 254.414 204.452 254.414 204.327V203.61C254.414 203.484 254.312 203.382 254.185 203.382H252.683C252.557 203.382 252.455 203.484 252.455 203.61V204.327C252.455 204.452 252.557 204.554 252.683 204.554Z" fill="#3F3D56"/>
<path d="M248.765 204.554H250.268C250.394 204.554 250.496 204.452 250.496 204.327V203.61C250.496 203.484 250.394 203.382 250.268 203.382H248.765C248.639 203.382 248.537 203.484 248.537 203.61V204.327C248.537 204.452 248.639 204.554 248.765 204.554Z" fill="#3F3D56"/>
<path d="M244.847 204.554H246.35C246.476 204.554 246.578 204.452 246.578 204.327V203.61C246.578 203.484 246.476 203.382 246.35 203.382H244.847C244.721 203.382 244.619 203.484 244.619 203.61V204.327C244.619 204.452 244.721 204.554 244.847 204.554Z" fill="#3F3D56"/>
<path d="M240.929 204.554H242.432C242.558 204.554 242.66 204.452 242.66 204.327V203.61C242.66 203.484 242.558 203.382 242.432 203.382H240.929C240.803 203.382 240.701 203.484 240.701 203.61V204.327C240.701 204.452 240.803 204.554 240.929 204.554Z" fill="#3F3D56"/>
<path d="M237.011 204.554H238.514C238.64 204.554 238.742 204.452 238.742 204.327V203.61C238.742 203.484 238.64 203.382 238.514 203.382H237.011C236.885 203.382 236.783 203.484 236.783 203.61V204.327C236.783 204.452 236.885 204.554 237.011 204.554Z" fill="#3F3D56"/>
<path d="M233.093 204.554H234.596C234.722 204.554 234.824 204.452 234.824 204.327V203.61C234.824 203.484 234.722 203.382 234.596 203.382H233.093C232.967 203.382 232.865 203.484 232.865 203.61V204.327C232.865 204.452 232.967 204.554 233.093 204.554Z" fill="#3F3D56"/>
<path d="M259.344 206.899H274.559C274.685 206.899 274.787 206.797 274.787 206.672V205.955C274.787 205.829 274.685 205.727 274.559 205.727H259.344C259.218 205.727 259.115 205.829 259.115 205.955V206.672C259.115 206.797 259.218 206.899 259.344 206.899Z" fill="#3F3D56"/>
<path d="M243.224 167.377H241.894C241.49 167.377 241.164 167.703 241.164 168.105C241.164 168.508 241.49 168.834 241.894 168.834H243.224C243.627 168.834 243.954 168.508 243.954 168.105C243.954 167.703 243.627 167.377 243.224 167.377Z" fill="white"/>
<path d="M258.435 167.377H257.105C256.702 167.377 256.375 167.703 256.375 168.105C256.375 168.508 256.702 168.834 257.105 168.834H258.435C258.838 168.834 259.165 168.508 259.165 168.105C259.165 167.703 258.838 167.377 258.435 167.377Z" fill="white"/>
<path d="M262.745 167.377H261.415C261.011 167.377 260.685 167.703 260.685 168.105C260.685 168.508 261.011 168.834 261.415 168.834H262.745C263.148 168.834 263.475 168.508 263.475 168.105C263.475 167.703 263.148 167.377 262.745 167.377Z" fill="white"/>
<path d="M254.297 167.256H246.031C245.628 167.256 245.301 167.582 245.301 167.984C245.301 168.386 245.628 168.712 246.031 168.712H254.297C254.701 168.712 255.027 168.386 255.027 167.984C255.027 167.582 254.701 167.256 254.297 167.256Z" fill="white"/>
<path d="M274.579 167.256H266.313C265.91 167.256 265.583 167.582 265.583 167.984C265.583 168.386 265.91 168.712 266.313 168.712H274.579C274.982 168.712 275.309 168.386 275.309 167.984C275.309 167.582 274.982 167.256 274.579 167.256Z" fill="white"/>
<path d="M247.28 170.665H245.95C245.547 170.665 245.22 170.991 245.22 171.393C245.22 171.795 245.547 172.122 245.95 172.122H247.28C247.683 172.122 248.01 171.795 248.01 171.393C248.01 170.991 247.683 170.665 247.28 170.665Z" fill="white"/>
<path d="M262.491 170.665H261.161C260.758 170.665 260.431 170.991 260.431 171.393C260.431 171.795 260.758 172.122 261.161 172.122H262.491C262.894 172.122 263.221 171.795 263.221 171.393C263.221 170.991 262.894 170.665 262.491 170.665Z" fill="white"/>
<path d="M266.801 170.665H265.471C265.068 170.665 264.741 170.991 264.741 171.393C264.741 171.795 265.068 172.122 265.471 172.122H266.801C267.204 172.122 267.531 171.795 267.531 171.393C267.531 170.991 267.204 170.665 266.801 170.665Z" fill="white"/>
<path d="M258.354 170.543H250.087C249.684 170.543 249.357 170.869 249.357 171.272C249.357 171.674 249.684 172 250.087 172H258.354C258.757 172 259.084 171.674 259.084 171.272C259.084 170.869 258.757 170.543 258.354 170.543Z" fill="white"/>
<path d="M278.635 170.543H270.369C269.966 170.543 269.639 170.869 269.639 171.272C269.639 171.674 269.966 172 270.369 172H278.635C279.038 172 279.365 171.674 279.365 171.272C279.365 170.869 279.038 170.543 278.635 170.543Z" fill="white"/>
<path d="M251.336 173.953H250.006C249.603 173.953 249.276 174.279 249.276 174.681C249.276 175.083 249.603 175.409 250.006 175.409H251.336C251.74 175.409 252.066 175.083 252.066 174.681C252.066 174.279 251.74 173.953 251.336 173.953Z" fill="white"/>
<path d="M266.547 173.953H265.217C264.814 173.953 264.487 174.279 264.487 174.681C264.487 175.083 264.814 175.409 265.217 175.409H266.547C266.951 175.409 267.278 175.083 267.278 174.681C267.278 174.279 266.951 173.953 266.547 173.953Z" fill="white"/>
<path d="M270.857 173.953H269.527C269.124 173.953 268.797 174.279 268.797 174.681C268.797 175.083 269.124 175.409 269.527 175.409H270.857C271.261 175.409 271.587 175.083 271.587 174.681C271.587 174.279 271.261 173.953 270.857 173.953Z" fill="white"/>
<path d="M262.41 173.831H254.144C253.741 173.831 253.414 174.157 253.414 174.56C253.414 174.962 253.741 175.288 254.144 175.288H262.41C262.813 175.288 263.14 174.962 263.14 174.56C263.14 174.157 262.813 173.831 262.41 173.831Z" fill="white"/>
<path d="M282.692 173.831H274.425C274.022 173.831 273.695 174.157 273.695 174.56C273.695 174.962 274.022 175.288 274.425 175.288H282.692C283.095 175.288 283.422 174.962 283.422 174.56C283.422 174.157 283.095 173.831 282.692 173.831Z" fill="white"/>
<path d="M255.393 177.24H254.063C253.659 177.24 253.333 177.566 253.333 177.969C253.333 178.371 253.659 178.697 254.063 178.697H255.393C255.796 178.697 256.123 178.371 256.123 177.969C256.123 177.566 255.796 177.24 255.393 177.24Z" fill="white"/>
<path d="M270.604 177.24H269.274C268.871 177.24 268.544 177.566 268.544 177.969C268.544 178.371 268.871 178.697 269.274 178.697H270.604C271.007 178.697 271.334 178.371 271.334 177.969C271.334 177.566 271.007 177.24 270.604 177.24Z" fill="white"/>
<path d="M274.914 177.24H273.584C273.18 177.24 272.854 177.566 272.854 177.969C272.854 178.371 273.18 178.697 273.584 178.697H274.914C275.317 178.697 275.644 178.371 275.644 177.969C275.644 177.566 275.317 177.24 274.914 177.24Z" fill="white"/>
<path d="M266.466 177.119H258.2C257.797 177.119 257.47 177.445 257.47 177.847C257.47 178.25 257.797 178.576 258.2 178.576H266.466C266.87 178.576 267.196 178.25 267.196 177.847C267.196 177.445 266.87 177.119 266.466 177.119Z" fill="white"/>
<path d="M258.435 190.314H257.105C256.702 190.314 256.375 190.64 256.375 191.042C256.375 191.445 256.702 191.771 257.105 191.771H258.435C258.838 191.771 259.165 191.445 259.165 191.042C259.165 190.64 258.838 190.314 258.435 190.314Z" fill="white"/>
<path d="M262.745 190.314H261.415C261.011 190.314 260.685 190.64 260.685 191.042C260.685 191.445 261.011 191.771 261.415 191.771H262.745C263.148 191.771 263.475 191.445 263.475 191.042C263.475 190.64 263.148 190.314 262.745 190.314Z" fill="white"/>
<path d="M274.579 190.435H266.313C265.91 190.435 265.583 190.761 265.583 191.164C265.583 191.566 265.91 191.892 266.313 191.892H274.579C274.982 191.892 275.309 191.566 275.309 191.164C275.309 190.761 274.982 190.435 274.579 190.435Z" fill="white"/>
<path d="M243.224 190.314H241.894C241.49 190.314 241.164 190.64 241.164 191.042C241.164 191.445 241.49 191.771 241.894 191.771H243.224C243.627 191.771 243.954 191.445 243.954 191.042C243.954 190.64 243.627 190.314 243.224 190.314Z" fill="white"/>
<path d="M254.297 190.435H246.031C245.628 190.435 245.301 190.761 245.301 191.164C245.301 191.566 245.628 191.892 246.031 191.892H254.297C254.701 191.892 255.027 191.566 255.027 191.164C255.027 190.761 254.701 190.435 254.297 190.435Z" fill="white"/>
<path d="M247.28 187.026H245.95C245.547 187.026 245.22 187.352 245.22 187.755C245.22 188.157 245.547 188.483 245.95 188.483H247.28C247.683 188.483 248.01 188.157 248.01 187.755C248.01 187.352 247.683 187.026 247.28 187.026Z" fill="white"/>
<path d="M262.491 187.026H261.161C260.758 187.026 260.431 187.352 260.431 187.755C260.431 188.157 260.758 188.483 261.161 188.483H262.491C262.894 188.483 263.221 188.157 263.221 187.755C263.221 187.352 262.894 187.026 262.491 187.026Z" fill="white"/>
<path d="M266.801 187.026H265.471C265.068 187.026 264.741 187.352 264.741 187.755C264.741 188.157 265.068 188.483 265.471 188.483H266.801C267.204 188.483 267.531 188.157 267.531 187.755C267.531 187.352 267.204 187.026 266.801 187.026Z" fill="white"/>
<path d="M258.354 187.148H250.087C249.684 187.148 249.357 187.474 249.357 187.876C249.357 188.278 249.684 188.604 250.087 188.604H258.354C258.757 188.604 259.084 188.278 259.084 187.876C259.084 187.474 258.757 187.148 258.354 187.148Z" fill="white"/>
<path d="M251.336 183.738H250.006C249.603 183.738 249.276 184.065 249.276 184.467C249.276 184.869 249.603 185.195 250.006 185.195H251.336C251.74 185.195 252.066 184.869 252.066 184.467C252.066 184.065 251.74 183.738 251.336 183.738Z" fill="white"/>
<path d="M266.547 183.738H265.217C264.814 183.738 264.487 184.065 264.487 184.467C264.487 184.869 264.814 185.195 265.217 185.195H266.547C266.951 185.195 267.278 184.869 267.278 184.467C267.278 184.065 266.951 183.738 266.547 183.738Z" fill="white"/>
<path d="M270.857 183.738H269.527C269.124 183.738 268.797 184.065 268.797 184.467C268.797 184.869 269.124 185.195 269.527 185.195H270.857C271.261 185.195 271.587 184.869 271.587 184.467C271.587 184.065 271.261 183.738 270.857 183.738Z" fill="white"/>
<path d="M262.41 183.86H254.144C253.741 183.86 253.414 184.186 253.414 184.588C253.414 184.99 253.741 185.317 254.144 185.317H262.41C262.813 185.317 263.14 184.99 263.14 184.588C263.14 184.186 262.813 183.86 262.41 183.86Z" fill="white"/>
<path d="M255.393 180.451H254.063C253.659 180.451 253.333 180.777 253.333 181.179C253.333 181.581 253.659 181.907 254.063 181.907H255.393C255.796 181.907 256.123 181.581 256.123 181.179C256.123 180.777 255.796 180.451 255.393 180.451Z" fill="white"/>
<path d="M270.604 180.451H269.274C268.871 180.451 268.544 180.777 268.544 181.179C268.544 181.581 268.871 181.907 269.274 181.907H270.604C271.007 181.907 271.334 181.581 271.334 181.179C271.334 180.777 271.007 180.451 270.604 180.451Z" fill="white"/>
<path d="M274.914 180.451H273.584C273.18 180.451 272.854 180.777 272.854 181.179C272.854 181.581 273.18 181.907 273.584 181.907H274.914C275.317 181.907 275.644 181.581 275.644 181.179C275.644 180.777 275.317 180.451 274.914 180.451Z" fill="white"/>
<path d="M266.466 180.572H258.2C257.797 180.572 257.47 180.898 257.47 181.3C257.47 181.703 257.797 182.029 258.2 182.029H266.466C266.87 182.029 267.196 181.703 267.196 181.3C267.196 180.898 266.87 180.572 266.466 180.572Z" fill="white"/>
<path d="M236.153 228.845L229.909 219L249.507 203.415L257.596 194.475C258.647 193.314 259.985 192.448 261.476 191.964C262.968 191.48 264.561 191.395 266.095 191.717C267.63 192.04 269.053 192.758 270.222 193.801C271.392 194.844 272.266 196.175 272.758 197.661C273.487 199.862 273.33 202.261 272.321 204.349C271.311 206.437 269.527 208.053 267.347 208.854L254.555 213.555L236.153 228.845Z" fill="#FFB6B6"/>
<path d="M89.6545 157.459V205.311H123.259V157.459C123.26 157.115 123.15 156.78 122.945 156.503C122.741 156.226 122.452 156.021 122.123 155.92C121.967 155.869 121.805 155.843 121.641 155.845H91.2775C91.0646 155.845 90.8538 155.886 90.657 155.967C90.4602 156.048 90.2813 156.167 90.1306 156.317C89.9799 156.467 89.8603 156.645 89.7786 156.841C89.6969 157.037 89.6547 157.247 89.6545 157.459V157.459ZM102.769 173.901C102.778 172.958 103.16 172.056 103.831 171.392C104.503 170.728 105.411 170.356 106.356 170.356C107.302 170.356 108.209 170.728 108.881 171.392C109.553 172.056 109.935 172.958 109.944 173.901V179.454C109.939 180.4 109.559 181.305 108.886 181.972C108.214 182.64 107.305 183.014 106.356 183.014C105.408 183.014 104.498 182.64 103.826 181.972C103.154 181.305 102.774 180.4 102.769 179.454V173.901Z" fill="#2F2E41"/>
<path d="M89.5516 203.781V208.395C89.5524 208.634 89.6476 208.863 89.8166 209.033C89.9856 209.202 90.2147 209.298 90.4543 209.3H122.459C122.699 209.299 122.929 209.203 123.098 209.034C123.267 208.864 123.362 208.634 123.362 208.395V203.781H89.5516Z" fill="#3F3D56"/>
<path d="M36.7897 85.3646V172.735C36.7906 173.848 37.2344 174.916 38.0236 175.703C38.8128 176.491 39.883 176.933 40.9991 176.934H170.787C171.903 176.933 172.974 176.491 173.763 175.703C174.552 174.916 174.996 173.848 174.997 172.735V85.3646C174.994 84.2521 174.55 83.1861 173.761 82.3999C172.972 81.6137 171.903 81.1715 170.787 81.1701H40.9991C39.8839 81.1715 38.8148 81.6137 38.0258 82.3999C37.2369 83.1861 36.7924 84.2522 36.7897 85.3646Z" fill="#3F3D56"/>
<path d="M39.8345 86.4517V171.657C39.8356 172.252 40.0729 172.822 40.4946 173.243C40.9162 173.664 41.4879 173.9 42.0842 173.901H169.707C170.303 173.9 170.875 173.664 171.297 173.243C171.718 172.822 171.956 172.252 171.957 171.657V86.4517C171.957 85.8561 171.72 85.2848 171.298 84.8632C170.876 84.4416 170.304 84.2041 169.707 84.2028H42.0842C41.4871 84.2041 40.915 84.4416 40.4932 84.8632C40.0715 85.2848 39.8346 85.8561 39.8345 86.4517Z" fill="white"/>
<path d="M63.5191 208.988C63.649 209.15 63.8142 209.281 64.0021 209.371C64.19 209.461 64.3959 209.507 64.6042 209.506H140.532C140.739 209.505 140.944 209.459 141.132 209.37C141.319 209.281 141.484 209.151 141.615 208.99C141.746 208.829 141.839 208.641 141.888 208.44C141.937 208.238 141.94 208.029 141.897 207.826L140.719 202.241C140.67 202.013 140.565 201.801 140.413 201.625C140.261 201.448 140.067 201.312 139.849 201.229C139.691 201.167 139.523 201.135 139.353 201.135H65.7782C65.6085 201.135 65.4403 201.167 65.2824 201.229C65.0643 201.312 64.8704 201.448 64.7184 201.625C64.5665 201.801 64.4613 202.013 64.4125 202.241L63.2339 207.826C63.1919 208.029 63.1958 208.238 63.2451 208.439C63.2945 208.64 63.3881 208.827 63.5191 208.988Z" fill="#2F2E41"/>
<path d="M165.565 95.9403H46.1491C46.025 95.9375 45.9069 95.8864 45.82 95.7979C45.7332 95.7093 45.6846 95.5904 45.6846 95.4665C45.6846 95.3427 45.7332 95.2238 45.82 95.1352C45.9069 95.0467 46.025 94.9955 46.1491 94.9928H165.565C165.689 94.9955 165.807 95.0467 165.894 95.1352C165.981 95.2238 166.03 95.3427 166.03 95.4665C166.03 95.5904 165.981 95.7093 165.894 95.7979C165.807 95.8864 165.689 95.9375 165.565 95.9403V95.9403Z" fill="#3F3D56"/>
<path d="M54.2779 92.574C55.815 92.574 57.061 91.3033 57.061 89.7358C57.061 88.1683 55.815 86.8976 54.2779 86.8976C52.7409 86.8976 51.4949 88.1683 51.4949 89.7358C51.4949 91.3033 52.7409 92.574 54.2779 92.574Z" fill="#3F3D56"/>
<path d="M63.8921 92.574C65.4291 92.574 66.6751 91.3033 66.6751 89.7358C66.6751 88.1683 65.4291 86.8976 63.8921 86.8976C62.355 86.8976 61.109 88.1683 61.109 89.7358C61.109 91.3033 62.355 92.574 63.8921 92.574Z" fill="#3F3D56"/>
<path d="M73.5063 92.574C75.0433 92.574 76.2893 91.3033 76.2893 89.7358C76.2893 88.1683 75.0433 86.8976 73.5063 86.8976C71.9692 86.8976 70.7232 88.1683 70.7232 89.7358C70.7232 91.3033 71.9692 92.574 73.5063 92.574Z" fill="#3F3D56"/>
<path d="M159.776 87.5995H152.947C152.812 87.6026 152.684 87.6583 152.59 87.7547C152.495 87.851 152.443 87.9803 152.443 88.115C152.443 88.2497 152.495 88.3791 152.59 88.4754C152.684 88.5718 152.812 88.6275 152.947 88.6306H159.776C159.912 88.6287 160.041 88.5735 160.137 88.4771C160.232 88.3806 160.286 88.2505 160.286 88.115C160.286 87.9796 160.232 87.8495 160.137 87.753C160.041 87.6566 159.912 87.6014 159.776 87.5995Z" fill="#3F3D56"/>
<path d="M159.776 89.5358H152.947C152.812 89.5387 152.684 89.5944 152.589 89.6907C152.495 89.7871 152.442 89.9165 152.442 90.0513C152.442 90.1861 152.495 90.3156 152.589 90.4119C152.684 90.5083 152.812 90.5639 152.947 90.5669H159.776C159.912 90.5653 160.042 90.5102 160.137 90.4137C160.233 90.3172 160.287 90.187 160.287 90.0513C160.287 89.9157 160.233 89.7855 160.137 89.6889C160.042 89.5924 159.912 89.5374 159.776 89.5358V89.5358Z" fill="#3F3D56"/>
<path d="M159.776 91.472H152.947C152.812 91.4751 152.684 91.5308 152.59 91.6272C152.495 91.7235 152.443 91.8529 152.443 91.9876C152.443 92.1222 152.495 92.2516 152.59 92.3479C152.684 92.4443 152.812 92.5 152.947 92.5031H159.776C159.912 92.5012 160.041 92.446 160.137 92.3496C160.232 92.2531 160.286 92.123 160.286 91.9876C160.286 91.8521 160.232 91.722 160.137 91.6255C160.041 91.5291 159.912 91.4739 159.776 91.472V91.472Z" fill="#3F3D56"/>
<path d="M324.399 205.806C324.605 206.404 324.996 206.922 325.515 207.285C326.035 207.649 326.656 207.838 327.29 207.827L339.681 207.509C340.32 207.496 340.937 207.278 341.442 206.886C341.946 206.495 342.309 205.951 342.478 205.336L344.231 186.632C344.854 186.913 345.531 187.052 346.214 187.038C346.807 187.024 347.391 186.892 347.934 186.652C348.476 186.412 348.966 186.068 349.375 185.639C349.784 185.21 350.104 184.705 350.317 184.152C350.53 183.6 350.632 183.011 350.617 182.419C350.603 181.827 350.471 181.244 350.23 180.703C349.989 180.162 349.644 179.674 349.214 179.266C348.784 178.858 348.278 178.538 347.724 178.326C347.17 178.113 346.58 178.011 345.987 178.026C345.714 178.025 345.442 178.053 345.175 178.11C344.885 177.797 344.532 177.548 344.139 177.379C343.747 177.21 343.323 177.125 342.895 177.129L323.836 177.62C323.678 177.626 323.521 177.645 323.366 177.678C322.948 177.756 322.551 177.922 322.203 178.165C321.855 178.409 321.563 178.724 321.347 179.089C321.131 179.454 320.996 179.862 320.951 180.283C320.906 180.705 320.952 181.132 321.087 181.534L324.399 205.806ZM344.591 185.362L345.839 180.905C345.981 180.39 345.984 179.847 345.848 179.331C345.909 179.331 345.962 179.302 346.023 179.302C346.878 179.284 347.706 179.606 348.324 180.196C348.942 180.786 349.301 181.596 349.321 182.45C349.341 183.303 349.021 184.13 348.431 184.748C347.841 185.366 347.029 185.726 346.174 185.748C345.621 185.766 345.074 185.632 344.591 185.362Z" fill="#2F2E41"/>
<path d="M323.366 177.678C323.772 179.994 328.337 181.622 333.826 181.339C338.874 181.107 343.002 179.339 343.758 177.244C343.478 177.161 343.187 177.122 342.895 177.129L323.836 177.62C323.678 177.626 323.521 177.645 323.366 177.678V177.678Z" fill="#3F3D56"/>
<path d="M334.832 195.528C334.858 195.522 334.881 195.511 334.903 195.497L337.594 193.74C337.626 193.719 337.653 193.69 337.672 193.656C337.69 193.622 337.7 193.584 337.7 193.545C337.7 193.506 337.69 193.468 337.672 193.434C337.653 193.4 337.626 193.371 337.594 193.35L334.797 191.523C334.772 191.506 334.743 191.494 334.713 191.488C334.682 191.482 334.651 191.482 334.621 191.489C334.591 191.495 334.562 191.507 334.537 191.524C334.511 191.541 334.49 191.564 334.473 191.589C334.456 191.615 334.444 191.644 334.439 191.674C334.433 191.704 334.433 191.735 334.44 191.765C334.446 191.795 334.458 191.824 334.475 191.849C334.493 191.874 334.515 191.896 334.541 191.913L337.039 193.545L334.647 195.107C334.601 195.137 334.567 195.183 334.551 195.236C334.535 195.288 334.539 195.345 334.561 195.396C334.583 195.446 334.623 195.487 334.672 195.512C334.722 195.536 334.779 195.542 334.832 195.528H334.832Z" fill="#8C7851"/>
<path d="M330.583 195.724C330.628 195.712 330.668 195.688 330.699 195.653C330.73 195.618 330.75 195.575 330.757 195.529C330.763 195.483 330.756 195.436 330.735 195.395C330.714 195.353 330.682 195.318 330.641 195.295L328.161 193.877L330.558 192.1C330.583 192.082 330.604 192.059 330.62 192.033C330.635 192.007 330.646 191.977 330.65 191.947C330.655 191.917 330.653 191.886 330.646 191.856C330.638 191.827 330.625 191.799 330.607 191.774C330.588 191.75 330.565 191.729 330.539 191.713C330.513 191.697 330.484 191.687 330.453 191.683C330.423 191.678 330.392 191.68 330.362 191.687C330.332 191.695 330.304 191.708 330.28 191.726L327.596 193.715C327.565 193.738 327.54 193.768 327.523 193.803C327.507 193.839 327.499 193.877 327.502 193.916C327.504 193.955 327.516 193.992 327.536 194.025C327.557 194.058 327.585 194.085 327.619 194.104L330.409 195.7C330.461 195.73 330.524 195.739 330.583 195.724V195.724Z" fill="#8C7851"/>
<path d="M334.565 197.068C334.587 197.062 334.609 197.053 334.629 197.041C334.655 197.025 334.678 197.004 334.696 196.979C334.714 196.955 334.727 196.927 334.735 196.897C334.742 196.867 334.743 196.836 334.739 196.806C334.734 196.776 334.723 196.746 334.707 196.72L330.893 190.464C330.861 190.412 330.809 190.374 330.748 190.359C330.688 190.345 330.624 190.355 330.572 190.387C330.519 190.419 330.481 190.471 330.466 190.531C330.451 190.591 330.461 190.654 330.493 190.707L334.308 196.963C334.334 197.006 334.373 197.039 334.419 197.058C334.465 197.077 334.516 197.08 334.565 197.068Z" fill="#8C7851"/>
<path d="M120.125 121.695H99.457C98.6139 121.695 97.9304 122.377 97.9304 123.218V125.232C97.9304 126.073 98.6139 126.755 99.457 126.755H120.125C120.968 126.755 121.652 126.073 121.652 125.232V123.218C121.652 122.377 120.968 121.695 120.125 121.695Z" fill="#8C7851"/>
<path d="M132.173 131.815H87.4096C86.5665 131.815 85.8829 132.497 85.8829 133.338V135.353C85.8829 136.194 86.5665 136.876 87.4096 136.876H132.173C133.016 136.876 133.699 136.194 133.699 135.353V133.338C133.699 132.497 133.016 131.815 132.173 131.815Z" fill="#E6E6E6"/>
<path d="M132.173 141.936H87.4096C86.5665 141.936 85.8829 142.618 85.8829 143.459V145.474C85.8829 146.315 86.5665 146.996 87.4096 146.996H132.173C133.016 146.996 133.699 146.315 133.699 145.474V143.459C133.699 142.618 133.016 141.936 132.173 141.936Z" fill="#E6E6E6"/>
<path d="M135.967 175.826L136.069 176.145L136.074 176.156L139.126 185.412L142.637 196.078L149.242 216.123L149.306 219.236V219.247L149.797 244.295L148.436 247.691L149.967 253.258C149.967 253.258 149.263 244.842 145.486 249.675C143.346 252.422 140.844 255.232 138.79 257.867C141.783 259.075 144.824 260.168 147.913 261.145C148.58 261.358 149.253 261.56 149.925 261.763C150.069 261.805 150.213 261.848 150.357 261.89C160.597 264.911 171.184 266.609 181.857 266.941C182.412 266.957 182.956 266.968 183.485 266.979C183.671 266.984 183.853 266.989 184.034 266.989C184.632 266.995 185.224 267 185.822 267C187.027 267 188.228 266.982 189.423 266.947C198.269 266.698 207.063 265.512 215.657 263.407C215.599 259.868 215.438 255.732 215.209 251.315C215.102 249.148 212.707 246.801 212.563 244.534C212.461 242.83 214.612 241.228 214.499 239.499C213.774 228.848 212.867 232.937 212.195 225.395C212.125 224.655 212.061 223.947 212.002 223.271C211.57 218.427 211.272 215.399 211.272 215.399L214.142 197.35L218.65 169.013L218.304 168.444L217.914 168.252L194.134 156.511L192.843 153.211C192.467 152.26 191.814 151.443 190.969 150.866C190.123 150.288 189.124 149.976 188.1 149.969L172.435 149.905C171.622 149.902 170.82 150.092 170.095 150.459C169.37 150.827 168.744 151.361 168.268 152.018L164.026 157.879L135.967 175.826Z" fill="#3F3D56"/>
<path d="M152.854 211.663L149.306 219.237L146.884 224.41L142.717 246.174L140.63 248.383L138.843 240.563L120.136 244.707C119.522 241.306 119.972 244.822 119.593 241.091C119.7 240.984 119.812 240.878 119.924 240.771C120.222 240.495 120.473 240.234 120.468 239.984C120.254 227.114 120.895 205.212 126.241 191.943C127.078 189.776 128.182 187.722 129.527 185.827C129.634 185.683 129.735 185.54 129.837 185.396C132.302 181.952 133.86 178.562 136.069 176.151V176.145C136.082 176.134 136.095 176.122 136.106 176.108C136.114 176.104 136.121 176.099 136.127 176.092L151.301 168.066L151.952 186.311L152.416 199.426L152.854 211.663Z" fill="#3F3D56"/>
<path d="M207.568 213.814L212 223.274L213.547 226.568L217.713 248.33L219.792 250.533L221.584 242.716L222.426 242.543L237.607 239.407L242.031 253.426C243.029 251.768 243.422 249.818 243.144 247.904C242.866 245.991 241.934 244.232 240.506 242.925C240.204 242.652 239.952 242.387 239.959 242.136C240.211 226.999 239.283 199.359 230.901 187.982C228.239 184.372 226.642 180.776 224.318 178.264C224.311 178.257 224.311 178.25 224.304 178.25L218.648 169.013L218.303 168.446L217.915 168.252L207.568 213.814Z" fill="#3F3D56"/>
<path d="M180.72 145.458C192.229 145.458 201.56 136.15 201.56 124.669C201.56 113.187 192.229 103.879 180.72 103.879C169.21 103.879 159.88 113.187 159.88 124.669C159.88 136.15 169.21 145.458 180.72 145.458Z" fill="#FFB6B6"/>
<path d="M208.888 110.147C208.726 109.975 208.532 109.837 208.315 109.742C208.099 109.646 207.866 109.595 207.63 109.592L207.943 108.724C208.045 108.451 208.073 108.155 208.023 107.868C207.973 107.58 207.847 107.311 207.659 107.088C207.471 106.865 207.226 106.696 206.95 106.598C206.675 106.5 206.378 106.477 206.091 106.531L204.95 106.75L205.057 105.99C205.099 105.707 205.065 105.418 204.96 105.151C204.856 104.885 204.683 104.65 204.46 104.47C204.237 104.29 203.971 104.171 203.687 104.125C203.404 104.079 203.114 104.108 202.845 104.208C202.6 104.304 202.337 104.344 202.075 104.325C201.813 104.307 201.558 104.23 201.33 104.1C201.1 103.975 200.901 103.801 200.746 103.59C200.591 103.38 200.483 103.138 200.432 102.883L200.034 100.97L199.992 100.867C198.056 97.6475 194.333 95.3053 189.777 94.4469C185.722 93.677 181.564 94.0689 177.556 94.4375C175.966 94.5868 174.17 94.7548 172.673 95.6693C171.401 96.4531 170.325 98.0208 170.545 99.6025C166.593 98.3941 162.356 100.806 160.256 103.848C157.768 107.469 157.361 112.004 157.295 115.55C157.117 123.939 158.853 130.802 162.44 135.953C162.702 136.326 162.767 137.106 163.286 137.367L163.179 137.194C163.759 137.484 164.348 137.95 164.128 138.449C163.497 139.886 167.692 143.064 170.648 144.114C176.041 146.031 183.211 145.868 188.253 145.177L188.43 143.988C190.25 143.74 191.531 143.269 191.891 142.532C192.527 141.991 193.07 141.505 193.542 141.057L193.547 141.053C193.556 141.044 193.575 141.03 193.584 141.02C195.862 138.841 196.391 137.6 196.629 135.711C196.858 133.858 196.451 131.978 196.035 130.284C204.8 131.637 192.584 120.972 200.75 118.909C200.843 118.881 200.939 118.857 201.035 118.839C201.273 118.783 201.512 118.727 201.741 118.662C202.846 118.363 203.904 117.912 204.884 117.323C207.167 115.937 207.92 114.099 209.098 112.027C209.268 111.732 209.34 111.391 209.302 111.053C209.264 110.715 209.119 110.397 208.888 110.147V110.147Z" fill="#2F2E41"/>
<path d="M254.428 215.294C254.424 216.11 254.414 217.254 254.377 218.667C254.372 218.863 254.367 219.064 254.363 219.269C254.302 221.868 254.241 224.047 254.143 226.468C254.138 226.636 254.134 226.8 254.124 226.968C253.993 230.346 253.787 234.279 253.432 240.508C252.773 252.013 251.622 242.089 250.467 246.125C250.411 246.326 250.35 246.564 250.294 246.844C250.119 247.859 249.824 248.851 249.414 249.797C248.802 250.161 248.17 250.511 247.548 250.861C245.776 251.845 243.975 252.792 242.16 253.693C241.141 254.197 240.116 254.691 239.088 255.167C238.924 255.242 238.765 255.317 238.606 255.387C233.337 257.818 227.906 259.885 222.353 261.573C221.268 261.9 220.188 262.217 219.093 262.511C217.952 262.828 216.811 263.127 215.655 263.407C207.061 265.512 198.268 266.699 189.422 266.948C188.229 266.986 187.027 267 185.821 267C185.222 267 184.633 266.995 184.034 266.99C183.851 266.99 183.669 266.986 183.487 266.981C182.958 266.967 182.411 266.958 181.859 266.944C171.186 266.611 160.599 264.913 150.359 261.891L149.924 261.765C149.251 261.559 148.582 261.359 147.913 261.144C144.826 260.169 141.784 259.077 138.788 257.869C136.501 256.95 134.24 255.964 132.006 254.911C131.986 254.905 131.967 254.896 131.95 254.883C131.483 254.668 131.01 254.444 130.542 254.215C130.482 254.183 130.416 254.15 130.351 254.117C128.606 253.268 126.88 252.379 125.173 251.449C123.737 248.159 121.717 247.529 120.463 244.637C120.099 243.777 119.835 242.879 119.678 241.959C119.678 241.949 119.673 241.94 119.673 241.926C119.804 243.662 119.116 238.847 119.668 241.907C119.664 241.851 119.659 241.791 119.654 241.721C119.64 241.553 119.622 241.347 119.593 241.091C117.989 225.465 118.092 207.595 117.395 192.87C117.348 191.919 117.3 191.007 117.25 190.136C117.236 189.847 117.218 189.562 117.199 189.282C117.232 189.199 117.269 189.11 117.311 189.026C117.32 189.002 117.331 188.978 117.344 188.956C117.358 188.927 117.373 188.899 117.391 188.872C117.4 188.858 117.414 188.839 117.423 188.825C117.43 188.809 117.438 188.794 117.447 188.779C117.489 188.713 117.536 188.643 117.587 188.578C117.61 188.55 117.629 188.527 117.652 188.503C117.669 188.479 117.687 188.458 117.709 188.438C117.723 188.416 117.74 188.395 117.76 188.377C117.779 188.359 117.797 188.335 117.821 188.312C117.831 188.297 117.844 188.285 117.858 188.275C117.895 188.232 117.936 188.193 117.98 188.158C118.147 188.005 118.325 187.865 118.513 187.738C118.578 187.696 118.649 187.654 118.714 187.608C119.185 187.326 119.682 187.089 120.197 186.898C120.375 186.833 120.552 186.772 120.744 186.707C120.814 186.688 120.88 186.665 120.95 186.642C121.053 186.609 121.156 186.576 121.263 186.553C121.796 186.394 122.372 186.259 122.994 186.133C123.068 186.119 123.148 186.105 123.228 186.086C123.34 186.063 123.457 186.044 123.574 186.026C123.733 185.998 123.896 185.97 124.06 185.942C125.449 185.723 127.025 185.559 128.765 185.452C128.929 185.443 129.093 185.433 129.256 185.424C129.448 185.415 129.64 185.405 129.836 185.396C130 185.387 130.168 185.382 130.337 185.377C130.5 185.368 130.669 185.363 130.842 185.359C131.314 185.345 131.801 185.331 132.296 185.321C133.709 185.293 135.196 185.303 136.758 185.335C137.483 185.354 138.222 185.373 138.98 185.405C139.031 185.405 139.078 185.41 139.125 185.41C139.784 185.433 140.448 185.461 141.131 185.499C141.608 185.522 142.09 185.545 142.572 185.573C143.025 185.601 143.484 185.629 143.947 185.662C144.307 185.681 144.667 185.709 145.032 185.732C145.341 185.755 145.649 185.779 145.958 185.797L146.379 185.825C146.608 185.844 146.837 185.858 147.071 185.881C147.586 185.923 148.1 185.965 148.624 186.007C149.143 186.054 149.672 186.1 150.2 186.147C150.729 186.194 151.262 186.245 151.795 186.296C151.851 186.301 151.903 186.306 151.954 186.31C152.44 186.362 152.927 186.408 153.418 186.46C153.53 186.469 153.647 186.478 153.759 186.492C154.228 186.539 154.705 186.594 155.177 186.644C155.322 186.66 155.467 186.675 155.612 186.691C155.982 186.731 156.347 186.766 156.72 186.81C157.211 186.866 157.711 186.917 158.198 186.982C158.577 187.024 158.955 187.066 159.334 187.113C159.928 187.183 160.532 187.258 161.135 187.337C161.364 187.365 161.593 187.393 161.823 187.426C163.544 187.64 165.284 187.878 167.051 188.125C169.731 188.503 172.453 188.914 175.194 189.357C177.94 189.8 180.701 190.269 183.477 190.762C184.179 190.888 184.88 191.013 185.587 191.144C185.905 191.205 186.223 191.265 186.541 191.326C187.083 191.424 187.626 191.527 188.168 191.629C188.711 191.732 189.253 191.835 189.796 191.942C190.441 192.068 191.092 192.194 191.737 192.32C195.988 193.16 200.216 194.056 204.342 194.993C205.02 195.147 205.698 195.306 206.371 195.46C207.718 195.773 209.053 196.09 210.375 196.412C210.74 196.496 211.1 196.584 211.46 196.673C212.358 196.897 213.256 197.121 214.14 197.35L214.294 197.392C214.945 197.55 215.581 197.713 216.217 197.881C217.718 198.273 219.194 198.67 220.646 199.071C221.609 199.337 222.562 199.606 223.504 199.878C224.911 200.284 226.291 200.695 227.633 201.11C227.965 201.213 228.297 201.315 228.625 201.413C229.607 201.717 230.575 202.025 231.515 202.333C232.264 202.575 232.993 202.822 233.714 203.07C234.434 203.317 235.14 203.564 235.832 203.812C236.277 203.97 236.716 204.138 237.156 204.297C237.787 204.53 238.409 204.763 239.017 204.997C239.204 205.067 239.387 205.141 239.569 205.211C239.686 205.263 239.798 205.305 239.911 205.351C240.13 205.44 240.355 205.524 240.57 205.613C240.79 205.696 241.005 205.785 241.22 205.878C241.431 205.962 241.646 206.051 241.852 206.14C242.062 206.224 242.268 206.312 242.474 206.406C242.647 206.476 242.815 206.55 242.979 206.625C243.311 206.77 243.643 206.914 243.966 207.064C244.125 207.138 244.284 207.208 244.443 207.283L244.807 207.451C244.859 207.479 244.91 207.502 244.962 207.525C245.079 207.581 245.2 207.642 245.317 207.698C245.589 207.824 245.855 207.959 246.117 208.085C246.468 208.263 246.809 208.44 247.137 208.613C247.469 208.79 247.791 208.967 248.1 209.14C248.152 209.168 248.198 209.196 248.25 209.224C248.32 209.261 248.39 209.303 248.46 209.34C248.699 209.476 248.928 209.616 249.157 209.751C249.606 210.026 250.032 210.297 250.429 210.568C250.518 210.628 250.602 210.689 250.691 210.745C250.986 210.955 251.267 211.16 251.528 211.37C251.528 211.375 251.528 211.375 251.533 211.375C251.622 211.44 251.706 211.51 251.79 211.575C251.86 211.641 251.935 211.697 252.005 211.762C252.249 211.972 252.473 212.172 252.679 212.378C252.748 212.441 252.814 212.508 252.875 212.578C252.903 212.601 252.928 212.626 252.95 212.653C253.044 212.746 253.128 212.84 253.207 212.933C253.22 212.946 253.231 212.96 253.24 212.975C253.352 213.106 253.455 213.236 253.554 213.367C253.6 213.432 253.652 213.498 253.694 213.563C253.75 213.642 253.806 213.726 253.853 213.806C253.895 213.871 253.932 213.941 253.97 214.006C254.069 214.174 254.154 214.351 254.222 214.533C254.275 214.657 254.317 214.785 254.349 214.916C254.384 215.04 254.411 215.166 254.428 215.294V215.294Z" fill="#2F2E41"/>
<path opacity="0.2" d="M254.428 215.294C254.424 216.11 254.414 217.254 254.377 218.667C254.372 218.863 254.363 219.064 254.358 219.269C254.311 221.252 254.241 223.702 254.143 226.468C254.138 226.636 254.134 226.8 254.124 226.968C253.993 230.346 253.787 234.279 253.432 240.508C252.773 252.013 251.622 242.089 250.467 246.125C247.258 244.156 243.741 242.094 239.981 239.976C239.303 239.593 238.618 239.209 237.928 238.823C230.407 234.638 222.007 230.252 213.237 225.908C212.891 225.736 212.541 225.563 212.194 225.395C192.106 215.49 170.18 205.855 152.417 199.426C148.989 198.185 145.715 197.065 142.637 196.08C136.155 194.014 130.552 192.567 126.24 191.942C121.75 191.289 118.649 191.522 117.395 192.87C117.348 191.919 117.3 191.007 117.25 190.136C117.231 189.847 117.213 189.562 117.194 189.282C117.223 189.206 117.26 189.132 117.297 189.058C117.302 189.048 117.306 189.036 117.311 189.026C117.32 189.002 117.331 188.978 117.344 188.956C117.358 188.927 117.373 188.899 117.391 188.872C117.406 188.839 117.425 188.807 117.447 188.779C117.489 188.713 117.536 188.643 117.587 188.578C117.625 188.529 117.665 188.482 117.709 188.438C117.723 188.416 117.74 188.395 117.76 188.377C117.779 188.359 117.797 188.335 117.821 188.312C117.831 188.297 117.844 188.285 117.858 188.275C117.895 188.232 117.936 188.193 117.98 188.158C118.147 188.005 118.325 187.864 118.513 187.738C118.578 187.696 118.649 187.654 118.714 187.607C119.185 187.326 119.682 187.089 120.197 186.898C120.374 186.833 120.552 186.772 120.744 186.707C120.814 186.688 120.88 186.665 120.95 186.642C121.053 186.609 121.156 186.576 121.263 186.553C121.796 186.394 122.372 186.259 122.994 186.133C123.181 186.096 123.377 186.058 123.574 186.026C123.733 185.998 123.896 185.97 124.06 185.942C125.449 185.723 127.025 185.559 128.765 185.452C128.929 185.443 129.093 185.433 129.256 185.424C129.448 185.415 129.64 185.405 129.836 185.396C130 185.387 130.168 185.382 130.337 185.377C130.5 185.368 130.669 185.363 130.842 185.359C131.314 185.345 131.801 185.331 132.296 185.321C133.709 185.298 135.196 185.307 136.758 185.34C137.483 185.354 138.222 185.377 138.98 185.41C139.027 185.41 139.078 185.415 139.125 185.415C139.784 185.433 140.453 185.466 141.131 185.499C141.608 185.522 142.09 185.545 142.572 185.573C143.025 185.601 143.484 185.629 143.947 185.662C144.307 185.681 144.667 185.709 145.032 185.732C145.341 185.755 145.649 185.778 145.958 185.797C146.327 185.825 146.697 185.853 147.071 185.881C147.586 185.923 148.1 185.965 148.624 186.007C149.143 186.054 149.672 186.1 150.2 186.147C150.729 186.194 151.262 186.245 151.795 186.296C151.851 186.301 151.903 186.306 151.954 186.31C152.44 186.362 152.927 186.408 153.418 186.46C156.14 186.735 158.941 187.057 161.823 187.425C163.544 187.645 165.287 187.88 167.051 188.13C169.731 188.508 172.453 188.919 175.194 189.357C177.94 189.8 180.701 190.268 183.477 190.761C184.179 190.887 184.88 191.013 185.587 191.144C186.447 191.303 187.308 191.464 188.168 191.629C188.711 191.732 189.253 191.835 189.796 191.942C190.441 192.068 191.092 192.194 191.737 192.32C195.988 193.16 200.216 194.055 204.342 194.993C205.02 195.147 205.698 195.306 206.371 195.46C207.718 195.772 209.053 196.09 210.375 196.412C210.74 196.5 211.1 196.589 211.46 196.678C212.363 196.902 213.256 197.126 214.14 197.349V197.354C214.191 197.363 214.243 197.377 214.294 197.391C214.94 197.555 215.581 197.718 216.217 197.886C217.718 198.278 219.194 198.673 220.646 199.071C221.609 199.342 222.563 199.608 223.504 199.878C224.911 200.289 226.291 200.699 227.633 201.11C227.965 201.213 228.298 201.315 228.625 201.413C229.607 201.721 230.571 202.028 231.515 202.332C232.264 202.575 232.993 202.822 233.714 203.07C234.434 203.317 235.14 203.564 235.832 203.812C236.281 203.97 236.721 204.133 237.156 204.292C237.792 204.525 238.409 204.759 239.017 204.997C239.204 205.067 239.387 205.141 239.569 205.211C239.911 205.342 240.243 205.477 240.57 205.613C240.79 205.696 241.005 205.785 241.22 205.878C241.431 205.962 241.646 206.051 241.852 206.14C242.062 206.224 242.268 206.312 242.474 206.406C242.647 206.476 242.815 206.55 242.979 206.625C243.311 206.77 243.643 206.914 243.966 207.064C244.125 207.138 244.284 207.208 244.443 207.283L244.808 207.451C244.859 207.479 244.91 207.502 244.962 207.525C245.359 207.712 245.743 207.899 246.117 208.085C246.468 208.263 246.809 208.44 247.137 208.613C247.525 208.818 247.894 209.018 248.25 209.224C248.32 209.261 248.39 209.303 248.46 209.34C248.699 209.476 248.928 209.616 249.157 209.751C249.606 210.026 250.032 210.297 250.429 210.567C250.822 210.838 251.187 211.104 251.528 211.37C251.528 211.375 251.528 211.375 251.533 211.375C251.697 211.505 251.856 211.636 252.005 211.762C252.249 211.972 252.473 212.172 252.679 212.378C252.748 212.441 252.814 212.508 252.875 212.578C252.903 212.601 252.928 212.626 252.95 212.653C253.048 212.76 253.147 212.868 253.24 212.975C253.353 213.106 253.455 213.236 253.554 213.367C253.6 213.432 253.652 213.498 253.694 213.563C253.75 213.642 253.806 213.726 253.853 213.805C253.895 213.871 253.932 213.941 253.97 214.006C254.069 214.174 254.154 214.351 254.222 214.533C254.274 214.658 254.316 214.786 254.349 214.916C254.384 215.04 254.411 215.166 254.428 215.294V215.294Z" fill="black"/>
</g>
<defs>
<clipPath id="clip0_26_43">
<rect width="368" height="267" fill="white"/>
</clipPath>
</defs>
</svg>
